{"title":"Bryan Adams - Live at Slane Castle (2000) HDTV","uid":10393348,"size":1782047654,"categoryP":"video","categoryS":"hd___tv_shows","magnet":"?xt=urn:btih:9dacfabe04ac913636cabd9689ff1e8185f357fa&amp;dn=Bryan+Adams+-+Live+at+Slane+Castle+%282000%29+HDTV&amp;tr=udp%3A%2F%2Ftracker.openbittorrent.com%3A80&amp;tr=udp%3A%2F%2Fopen.demonii.com%3A1337&amp;tr=udp%3A%2F%2Ftracker.coppersurfer.tk%3A6969&amp;tr=udp%3A%2F%2Fexodus.desync.com%3A6969","seeders":4,"leechers":0,"uploader":"thetorrentlord","files":-1,"time":1403227652,"description":"Found this TS file and compressed it to 720p.\t\t\t\t\t\t\t\t\t\t\t\t\t\t\t\t\t\t\t\t\t\t\t\t\t\t\t\t\t\t\t\t\t\t\t\t\t\t\t\t\t\t\t\t\t   All credit to the original uploader. The original info indicates it does not include the encore from the original concert.\t\t\t\t\t\t\t\t\t\t\t\t\t\t\t\t\t\t\t\t\t\t\t\t\t\t\t\t\t\t\t\t\t\t\t\t\t\t\t\t\t\t\t\t\t\t\t\t\t\t\t\tGrab the sample and if you like it then go for it.\t\t\t\t\t\t\t\t\t\t\t\t\t\t\t\t\t\t\t\t\t\t\t\t\t\t\t\t\t\t\t\t\t\t\t\t\t\t\t\t\t\t\t\t\t\t                                                                                                                         Enjoy and please share.\t\t\t\t\t\t\t\t\t\t\t\t\t\t\t\t\t\t\t\t\t\t\t\t\t\t\t\t\t\t\t\t        Setlist:\n        01.Back to You\n        02.18 til I Die\n        03.Can't Stop This Thing We Started\n        04.Summer of '69\n        05.It's Only Love\n        06.(Everything I Do) I Do It for You\n        07.I'm Ready\n        08.Heaven\n        09.The Only Thing That Looks Good on Me Is You\n        10.Cloud #9\n        11.Run to You\n        12.The Best of Me\n        13.Please Forgive Me\t\t\t\t\t\t\t\t\t\t\t\t\t\t\t\t\t\t\t\t\t\t\t\t\t\t\t\t\t\t   \t\t\t\t\t\t\t\t\t\t\t\t\t\t\t\t\t\t\t\t\t\t\t\t\t\tTTLTTLTTLTTLTTLTTLTTLTTLTTLTTLTTLTTLTTLTTLTTLTTLTTLTTLTTLTTLTTLTTL\t\t\t\t\t\t\t\t\t\t\t\t\t\t\t\t\t\t\t\t\t\t\t\t\t\t\t\t\t\t\t\t\t\t\t\t\t\t\t\t\t\t\t\t\t\t\t\t\t\t\t\t\t\t\t\t\t\t\t\tBryan Adams_Live at Slane Castle 2000_720p.HDTV.x264_TTL.mkv\nFormat                           : Matroska\nFile size                        : 1.63 GiB\nDuration                         : 59mn 43s\nOverall bit rate                 : 3 908 Kbps\nEncoded date                     : UTC 2013-10-21 15:03:09\nWriting application              : mkvmerge v2.4.0 ('Fumbling Towards Ecstasy') built on Oct 11 2008 20:13:15\nWriting library                  : libebml v0.7.7 + libmatroska v0.8.1\n\nVideo\nID                               : 1\nFormat                           : AVC\nFormat/Info                      : Advanced Video Codec\nFormat profile                   : &lt;a class=&quot;__cf_email__&quot; href=&quot;/cdn-cgi/l/email-protection&quot; data-cfemail=&quot;4409252d2a0408776a76&quot;&gt;[email&amp;#160;protected]&lt;/a&gt;&lt;script cf-hash='f9e31' type=&quot;text/javascript&quot;&gt;\n/* &lt;![CDATA[ */!function(){try{var t=&quot;currentScript&quot;in document?document.currentScript:function(){for(var t=document.getElementsByTagName(&quot;script&quot;),e=t.length;e--;)if(t[e].getAttribute(&quot;cf-hash&quot;))return t[e]}();if(t&amp;&amp;t.previousSibling){var e,r,n,i,c=t.previousSibling,a=c.getAttribute(&quot;data-cfemail&quot;);if(a){for(e=&quot;&quot;,r=parseInt(a.substr(0,2),16),n=2;a.length-n;n+=2)i=parseInt(a.substr(n,2),16)^r,e+=String.fromCharCode(i);e=document.createTextNode(e),c.parentNode.replaceChild(e,c)}}}catch(u){}}();/* ]]&gt; */&lt;/script&gt;\nFormat settings, CABAC           : Yes\nFormat settings, ReFrames        : 4 frames\nMuxing mode                      : Container profile=&lt;a class=&quot;__cf_email__&quot; href=&quot;/cdn-cgi/l/email-protection&quot; data-cfemail=&quot;a4f1cacfcacbd3cae4978a96&quot;&gt;[email&amp;#160;protected]&lt;/a&gt;&lt;script cf-hash='f9e31' type=&quot;text/javascript&quot;&gt;\n/* &lt;![CDATA[ */!function(){try{var t=&quot;currentScript&quot;in document?document.currentScript:function(){for(var t=document.getElementsByTagName(&quot;script&quot;),e=t.length;e--;)if(t[e].getAttribute(&quot;cf-hash&quot;))return t[e]}();if(t&amp;&amp;t.previousSibling){var e,r,n,i,c=t.previousSibling,a=c.getAttribute(&quot;data-cfemail&quot;);if(a){for(e=&quot;&quot;,r=parseInt(a.substr(0,2),16),n=2;a.length-n;n+=2)i=parseInt(a.substr(n,2),16)^r,e+=String.fromCharCode(i);e=document.createTextNode(e),c.parentNode.replaceChild(e,c)}}}catch(u){}}();/* ]]&gt; */&lt;/script&gt;\nCodec ID                         : V_MPEG4/ISO/AVC\nDuration                         : 59mn 43s\nBit rate                         : 3 382 Kbps\nNominal bit rate                 : 3 454 Kbps\nWidth                            : 1 280 pixels\nHeight                           : 720 pixels\nDisplay aspect ratio             : 16:9\nFrame rate mode                  : Variable\nFrame rate                       : 50.000 fps\nResolution                       : 8 bits\nColorimetry                      : 4:2:0\nScan type                        : Progressive\nBits/(Pixel*Frame)               : 0.073\nStream size                      : 1.41 GiB (87%)\nWriting library                  : x264 core 112\n\nLanguage                         : English\n\nAudio\nID                               : 2\nFormat                           : AC-3\nFormat/Info                      : Audio Coding 3\nCodec ID                         : A_AC3\nDuration                         : 59mn 43s\nBit rate mode                    : Constant\nBit rate                         : 448 Kbps\nChannel(s)                       : 2 channels\nChannel positions                : L R\nSampling rate                    : 48.0 KHz\nStream size                      : 191 MiB (11%)\nLanguage                         : German\n\nMenu\n00:00:00.000                     : :Chapter 1\n00:06:00.000                     : :Chapter 2\n00:12:00.000                     : :Chapter 3\n00:18:00.000                     : :Chapter 4\n00:24:00.000                     : :Chapter 5\n00:30:00.000                     : :Chapter 6\n00:36:00.000                     : :Chapter 7\n00:42:00.000                     : :Chapter 8\n00:48:00.000                     : :Chapter 9\n00:54:00.000                     : :Chapter 10\n\n\n","torrent":{"xt":"urn:btih:9dacfabe04ac913636cabd9689ff1e8185f357fa","amp;dn":"Bryan+Adams+-+Live+at+Slane+Castle+%282000%29+HDTV","amp;tr":["udp%3A%2F%2Ftracker.openbittorrent.com%3A80","udp%3A%2F%2Fopen.demonii.com%3A1337","udp%3A%2F%2Ftracker.coppersurfer.tk%3A6969","udp%3A%2F%2Fexodus.desync.com%3A6969"],"infoHash":"9dacfabe04ac913636cabd9689ff1e8185f357fa","infoHashBuffer":{"type":"Buffer","data":[157,172,250,190,4,172,145,54,54,202,189,150,137,255,30,129,133,243,87,250]},"announce":[],"urlList":[]}}